<svg width="28" height="28" viewBox="0 0 28 28" fill="none" xmlns="http://www.w3.org/2000/svg">
<g clip-path="url(#clip0_170_607)">
<circle cx="13.9966" cy="14" r="14" fill="#1F8505"/>
<path d="M15.8776 20.68L9.2392 21.5183C8.57028 21.603 7.95216 21.1203 7.86749 20.4514L6.4365 9.16441C6.34336 8.48702 6.826 7.8689 7.49492 7.78423L12.7278 7.12377L12.9394 6.24316L7.39332 6.94596C6.25869 7.09837 5.44582 8.13986 5.58976 9.27448L7.02075 20.5615C7.1647 21.7046 8.20618 22.509 9.34081 22.365L16.3433 21.4675C16.7413 21.4252 17.0885 21.2728 17.3679 21.0357L15.8776 20.68Z" fill="#F6FBF5"/>
<path d="M21.1698 6.38688L14.1588 5.54014C13.0242 5.40466 11.9912 6.21753 11.8472 7.36063L10.484 18.6561C10.3485 19.7907 11.1614 20.8238 12.296 20.9677L19.307 21.8144C20.4416 21.9499 21.4746 21.137 21.6186 20.0024L22.9818 8.70694C23.1173 7.56384 22.3044 6.53082 21.1698 6.38688Z" fill="#F6FBF5"/>
</g>
<defs>
<clipPath id="clip0_170_607">
<rect width="28" height="28" fill="white" transform="translate(-0.00341797)"/>
</clipPath>
</defs>
</svg>
