<svg width="24" height="24" viewBox="0 0 24 24" fill="none" xmlns="http://www.w3.org/2000/svg">
<path d="M9.18485 21.8747C8.89746 21.8763 8.61343 21.8128 8.35411 21.6889C8.09479 21.565 7.86691 21.3839 7.68757 21.1594L2.43157 14.7207C2.18295 14.4162 2.02445 14.0482 1.97398 13.6583C1.92352 13.2684 1.98309 12.8722 2.14598 12.5144C2.30887 12.1565 2.56859 11.8514 2.89577 11.6335C3.22296 11.4155 3.60459 11.2934 3.99753 11.2809C4.0201 11.2802 4.04281 11.2799 4.06542 11.2799C4.58991 11.2796 5.09557 11.4753 5.48313 11.8287L9.04801 15.0728C9.14997 15.1656 9.28288 15.217 9.42074 15.217C9.43071 15.217 9.44068 15.2167 9.45065 15.2162C9.52392 15.2122 9.59568 15.1937 9.66175 15.1618C9.72782 15.1299 9.78689 15.0852 9.83553 15.0302L20.7664 2.67996C20.7712 2.67451 20.7759 2.66898 20.7805 2.66335C20.8338 2.59808 20.9 2.54454 20.975 2.5061C21.05 2.46767 21.1321 2.44516 21.2162 2.44001C21.2309 2.43904 21.2461 2.43848 21.2611 2.43848C21.4176 2.43772 21.5684 2.49706 21.6823 2.60427C21.8911 2.79761 21.9592 3.12701 21.8312 3.32362C21.8291 3.32695 10.9086 20.9143 10.9086 20.9143C10.533 21.4879 9.94445 21.8369 9.29322 21.8718C9.25713 21.8738 9.22076 21.8747 9.18504 21.8747H9.18485Z" fill="#79B669"/>
<path d="M21.2614 2.99246C21.2697 2.9921 21.2781 2.99357 21.2858 2.99676C21.2935 2.99994 21.3005 3.00478 21.3061 3.01092C21.3218 3.02644 21.333 3.04584 21.3387 3.06714L10.4417 20.6164C10.1598 21.044 9.74163 21.2934 9.26334 21.319C9.23712 21.3205 9.21068 21.3212 9.18465 21.3212C8.97951 21.322 8.77684 21.2765 8.59185 21.1878C8.40686 21.0992 8.24434 20.9698 8.11651 20.8093L2.86051 14.3709C2.67716 14.1463 2.56025 13.875 2.52301 13.5875C2.48576 13.3001 2.52967 13.0079 2.64975 12.7441C2.76984 12.4803 2.96132 12.2553 3.20256 12.0946C3.4438 11.9338 3.72518 11.8438 4.01491 11.8346C4.0318 11.8341 4.04873 11.8338 4.06568 11.8338C4.4523 11.8336 4.82504 11.978 5.11069 12.2385L8.67557 15.4825C8.8795 15.6681 9.14531 15.771 9.42105 15.771C9.44094 15.771 9.46092 15.7704 9.48105 15.7694C9.62759 15.7614 9.77109 15.7245 9.90322 15.6606C10.0354 15.5968 10.1535 15.5073 10.2508 15.3974L21.1814 3.04715C21.191 3.03626 21.2005 3.02518 21.2097 3.01392C21.2148 3.00718 21.2215 3.00174 21.2291 2.99806C21.2368 2.99438 21.2452 2.99256 21.2537 2.99274C21.2563 2.99274 21.259 2.99246 21.2615 2.99246M21.2615 1.88477C21.2338 1.88477 21.2062 1.88569 21.1785 1.88763C21.0189 1.89788 20.8632 1.94095 20.721 2.01415C20.5789 2.08735 20.4533 2.1891 20.3523 2.31303L9.42091 14.6632L5.85603 11.4191C5.36686 10.9723 4.72799 10.7251 4.06549 10.7262C4.03709 10.7262 4.00863 10.7267 3.98011 10.7276C3.48392 10.7433 3.00203 10.8975 2.58887 11.1727C2.17571 11.448 1.84776 11.8333 1.64206 12.2851C1.43637 12.7369 1.36113 13.2372 1.42485 13.7296C1.48857 14.2219 1.68871 14.6866 2.00265 15.0712L7.25869 21.5096C7.49048 21.7973 7.7839 22.0292 8.1173 22.1882C8.4507 22.3473 8.81557 22.4295 9.18497 22.4287C9.23069 22.4287 9.27665 22.4274 9.32283 22.425C10.1546 22.3803 10.9024 21.9389 11.3759 21.2119L22.2954 3.62602C22.5709 3.2032 22.4669 2.57597 22.0587 2.19802C21.8423 1.99605 21.5572 1.88404 21.2612 1.88477H21.2615Z" fill="#79B669"/>
</svg>
