<svg width="24" height="24" viewBox="0 0 24 24" fill="none" xmlns="http://www.w3.org/2000/svg">
<path d="M13.9849 17.9995H9.48479C9.28501 17.9995 9.10993 18.075 8.95993 18.2247C8.8098 18.3748 8.73486 18.5497 8.73486 18.7497V23.25C8.73486 23.4501 8.81006 23.6251 8.95993 23.775C9.10993 23.9247 9.28482 24 9.48479 24H13.9849C14.1847 24 14.3602 23.9249 14.5096 23.775C14.66 23.6251 14.7351 23.4501 14.7351 23.25V18.7497C14.7351 18.5497 14.6602 18.3748 14.5096 18.2247C14.3602 18.0746 14.1847 17.9995 13.9849 17.9995Z" fill="#79B669"/>
<path d="M19.8915 4.52828C19.3788 3.58402 18.7165 2.78753 17.9038 2.13736C17.0916 1.48745 16.1784 0.968427 15.1661 0.581083C14.1537 0.193869 13.1475 0 12.1473 0C8.34743 0 5.44746 1.66253 3.4473 4.98767C3.34741 5.15008 3.31293 5.32504 3.34412 5.5126C3.37552 5.6999 3.47239 5.85621 3.63486 5.98118L6.70998 8.32515C6.87246 8.42498 7.02876 8.47495 7.17882 8.47495C7.40389 8.47495 7.59749 8.3748 7.76017 8.17482C8.66003 7.04996 9.32892 6.33123 9.76638 6.01855C10.304 5.65616 10.9788 5.47504 11.7913 5.47504C12.5538 5.47504 13.2255 5.67508 13.807 6.07477C14.3882 6.47486 14.6785 6.9374 14.6785 7.46239C14.6785 8.04965 14.5225 8.52487 14.2099 8.88739C13.8975 9.24977 13.3723 9.59962 12.6347 9.93725C11.66 10.3747 10.7658 11.0529 9.95368 11.9717C9.14096 12.8905 8.7349 13.8687 8.7349 14.9061V15.7498C8.7349 15.9876 8.80018 16.2218 8.93166 16.4531C9.06301 16.6845 9.22227 16.8 9.4099 16.8H13.9099C14.11 16.8 14.2848 16.7034 14.4349 16.509C14.5846 16.3158 14.6599 16.1126 14.6599 15.9004C14.6599 15.588 14.8318 15.1688 15.1753 14.644C15.5191 14.119 15.9471 13.7124 16.46 13.4248C16.9472 13.1499 17.3281 12.9283 17.6034 12.7593C17.879 12.5908 18.2381 12.3183 18.682 11.9436C19.1257 11.5685 19.4695 11.1965 19.713 10.8279C19.9568 10.4592 20.1757 9.98099 20.3694 9.39334C20.5636 8.80588 20.6602 8.17456 20.6602 7.49963C20.6601 6.46211 20.4036 5.47155 19.8915 4.52828Z" fill="#79B669"/>
</svg>
