<svg width="25" height="24" viewBox="0 0 25 24" fill="none" xmlns="http://www.w3.org/2000/svg">
<path fill-rule="evenodd" clip-rule="evenodd" d="M12.481 2.75C7.64847 2.75 3.73096 6.66751 3.73096 11.5C3.73096 16.3325 7.64847 20.25 12.481 20.25C17.3134 20.25 21.231 16.3325 21.231 11.5C21.231 6.66751 17.3134 2.75 12.481 2.75ZM2.23096 11.5C2.23096 5.83908 6.82004 1.25 12.481 1.25C18.1419 1.25 22.731 5.83908 22.731 11.5C22.731 14.0605 21.7921 16.4017 20.2398 18.1982L23.5113 21.4697C23.8042 21.7626 23.8042 22.2374 23.5113 22.5303C23.2184 22.8232 22.7435 22.8232 22.4506 22.5303L19.1792 19.2589C17.3827 20.8111 15.0415 21.75 12.481 21.75C6.82004 21.75 2.23096 17.1609 2.23096 11.5Z" fill="#FCFBFA"/>
</svg>
