<svg width="28" height="28" viewBox="0 0 28 28" fill="none" xmlns="http://www.w3.org/2000/svg">
<g clip-path="url(#clip0_170_603)">
<circle cx="13.9966" cy="14" r="14" fill="#F4AD2D"/>
<path d="M22.45 11.4655C22.3532 11.1718 22.1771 10.9106 21.9411 10.7107C21.7051 10.5109 21.4184 10.3803 21.1128 10.3333L17.0922 9.71819L15.3092 5.98289C15.1731 5.69365 14.9575 5.44912 14.6875 5.27785C14.4176 5.10657 14.1045 5.01562 13.7848 5.01562C13.4651 5.01562 13.152 5.10657 12.8821 5.27785C12.6122 5.44912 12.3965 5.69365 12.2604 5.98289L10.4774 9.71819L6.45687 10.3333C6.15089 10.3809 5.86394 10.5118 5.62752 10.7118C5.3911 10.9118 5.21437 11.173 5.11672 11.4669C5.01908 11.7608 5.0043 12.0758 5.07402 12.3775C5.14373 12.6792 5.29524 12.9559 5.5119 13.1771L8.47161 16.2081L7.77625 20.4338C7.72335 20.7463 7.76067 21.0675 7.88383 21.3596C8.00699 21.6517 8.21089 21.9027 8.47161 22.083C8.75599 22.2839 9.09513 22.3928 9.44332 22.395C9.7275 22.3936 10.0067 22.32 10.2546 22.1811L13.8116 20.2465L17.3151 22.1811C17.5948 22.3375 17.9133 22.411 18.2333 22.3928C18.5533 22.3746 18.8615 22.2655 19.1217 22.0784C19.3819 21.8912 19.5833 21.6337 19.7023 21.3361C19.8212 21.0384 19.8528 20.7131 19.7934 20.3981L19.098 16.1725L22.0577 13.1415C22.2694 12.9242 22.4178 12.6533 22.4869 12.358C22.556 12.0627 22.5433 11.7541 22.45 11.4655Z" fill="#FFF93F"/>
</g>
<defs>
<clipPath id="clip0_170_603">
<rect width="28" height="28" fill="white" transform="translate(-0.00341797)"/>
</clipPath>
</defs>
</svg>
